<svg width="16" height="17" viewBox="0 0 16 17" fill="none" xmlns="http://www.w3.org/2000/svg">
<g clip-path="url(#clip0_74_1069)">
<path d="M13.4545 0.863525C13.3098 0.863525 13.1711 0.920993 13.0688 1.02329C12.9665 1.12558 12.909 1.26432 12.909 1.40898V4.68171C12.909 4.82637 12.8516 4.96511 12.7493 5.0674C12.647 5.16969 12.5083 5.22716 12.3636 5.22716H11.8181V1.40898C11.8181 1.26432 11.7607 1.12558 11.6584 1.02329C11.5561 0.920993 11.4173 0.863525 11.2727 0.863525C11.128 0.863525 10.9893 0.920993 10.887 1.02329C10.7847 1.12558 10.7272 1.26432 10.7272 1.40898V5.22716H10.1818C10.0371 5.22716 9.89837 5.16969 9.79608 5.0674C9.69379 4.96511 9.63632 4.82637 9.63632 4.68171V1.40898C9.63632 1.26432 9.57885 1.12558 9.47656 1.02329C9.37427 0.920993 9.23553 0.863525 9.09086 0.863525C8.9462 0.863525 8.80746 0.920993 8.70517 1.02329C8.60288 1.12558 8.54541 1.26432 8.54541 1.40898V5.22716C8.5474 5.78341 8.71944 6.32575 9.03844 6.78144C9.35744 7.23713 9.80816 7.58438 10.3301 7.77662L9.95541 15.2166C9.95948 15.345 9.98946 15.4711 10.0435 15.5876C10.0976 15.7041 10.1747 15.8084 10.2701 15.8943C10.3656 15.9802 10.4774 16.0459 10.5989 16.0875C10.7204 16.1291 10.849 16.1457 10.977 16.1363H11.5683C11.6964 16.1457 11.825 16.1291 11.9465 16.0875C12.068 16.0459 12.1798 15.9802 12.2752 15.8943C12.3707 15.8084 12.4477 15.7041 12.5018 15.5876C12.5559 15.4711 12.5859 15.345 12.59 15.2166L12.2147 7.77662C12.7371 7.58493 13.1882 7.23784 13.5074 6.78204C13.8266 6.32623 13.9985 5.7836 14 5.22716V1.40898C14 1.26432 13.9425 1.12558 13.8402 1.02329C13.7379 0.920993 13.5992 0.863525 13.4545 0.863525Z" fill="#9F6A00"/>
<path d="M4.72727 0.863525C3.22127 0.863525 2 3.02898 2 4.97516C2 6.49262 2.74564 7.42098 3.78636 7.76025L3.41 15.2166C3.41407 15.345 3.44405 15.4711 3.49813 15.5876C3.55222 15.7041 3.62929 15.8084 3.72473 15.8943C3.82016 15.9802 3.93198 16.0459 4.05346 16.0875C4.17494 16.1291 4.30358 16.1457 4.43164 16.1363H5.02291C5.15097 16.1457 5.2796 16.1291 5.40109 16.0875C5.52257 16.0459 5.63439 15.9802 5.72982 15.8943C5.82525 15.8084 5.90233 15.7041 5.95642 15.5876C6.0105 15.4711 6.04048 15.345 6.04455 15.2166L5.66818 7.76025C6.70891 7.42098 7.45455 6.49262 7.45455 4.97516C7.45455 3.02898 6.23327 0.863525 4.72727 0.863525Z" fill="#9F6A00"/>
</g>
<defs>
<clipPath id="clip0_74_1069">
<rect width="16" height="16" fill="white" transform="translate(0 0.5)"/>
</clipPath>
</defs>
</svg>
