<svg width="24" height="24" viewBox="0 0 24 24" fill="none" xmlns="http://www.w3.org/2000/svg">
<path d="M16.8756 10.9072C15.4676 8.22597 13.0165 6.94475 10.2525 9.21929C10.245 9.22681 9.15881 10.1805 7.76987 11.5127C7.74402 11.5368 7.72564 11.5678 7.71692 11.602C7.7082 11.6362 7.7095 11.6722 7.72067 11.7057L8.09383 12.9471C8.10577 12.9868 8.10441 13.0294 8.08995 13.0682C8.07548 13.1071 8.04871 13.1402 8.01371 13.1625C7.9787 13.1848 7.93738 13.195 7.89604 13.1916C7.85469 13.1882 7.81557 13.1714 7.78465 13.1438L7.03565 12.474C6.99897 12.442 6.95151 12.4251 6.90284 12.4267C6.85417 12.4283 6.80792 12.4483 6.77342 12.4826C5.99045 13.2618 5.29447 13.9843 4.68163 14.6577C5.40075 15.3515 5.93986 16.2101 6.25226 17.1593C6.28616 17.2535 6.28141 17.3572 6.23907 17.4479C6.19672 17.5386 6.12022 17.6089 6.02625 17.6434C5.93228 17.6779 5.82849 17.6738 5.73752 17.632C5.64656 17.5902 5.57582 17.5142 5.54074 17.4204C5.2717 16.5869 4.80263 15.832 4.17452 15.2216C2.83478 16.7468 1.97567 17.9654 1.61613 18.8699C1.04196 20.5947 2.70156 21.2732 4.29563 21.2277C5.97976 21.2277 8.5722 20.6449 12.5309 18.711C13.2349 18.3565 13.905 17.9385 14.5329 17.4621C14.211 16.915 13.7762 16.4428 13.2575 16.0769C13.1709 16.0283 13.1069 15.9476 13.0793 15.8522C13.0517 15.7569 13.0626 15.6545 13.1098 15.5671C13.157 15.4797 13.2366 15.4144 13.3315 15.3851C13.4263 15.3559 13.5289 15.3651 13.6171 15.4108C13.8573 15.4658 14.8811 16.4758 15.1308 16.9852C16.9102 15.5539 18.2494 13.0767 16.8756 10.9072ZM13.6095 13.0833C13.5653 13.1061 13.5171 13.1198 13.4676 13.1237C13.418 13.1277 13.3682 13.1217 13.321 13.1062C13.2738 13.0907 13.2302 13.066 13.1927 13.0335C13.1551 13.0009 13.1244 12.9613 13.1023 12.9168C12.7737 12.1829 12.2485 11.5542 11.5847 11.1002C11.4986 11.0513 11.435 10.9707 11.4076 10.8755C11.3802 10.7803 11.3912 10.6782 11.4382 10.591C11.4853 10.5039 11.5646 10.4386 11.6592 10.4093C11.7538 10.3799 11.8562 10.3888 11.9443 10.4341C11.9859 10.4568 12.985 10.998 13.776 12.5761C13.8211 12.6655 13.8289 12.7691 13.7977 12.8642C13.7664 12.9593 13.6988 13.0381 13.6095 13.0833Z" fill="black"/>
<path d="M22.1968 7.26643C21.9311 7.02155 21.6199 6.83123 21.2809 6.70629C21.2998 6.66088 21.3187 6.61547 21.3339 6.57006C21.8161 4.85954 19.9108 3.86288 18.5447 4.79893C18.1799 4.13819 17.6916 3.5536 17.1065 3.07689C16.9128 2.91433 16.6751 2.81324 16.4236 2.78653C16.1722 2.75982 15.9185 2.80872 15.6951 2.92697C15.4716 3.04522 15.2884 3.22745 15.1691 3.45034C15.0497 3.67324 14.9995 3.92667 15.025 4.17823C15.1259 5.33186 14.9881 6.49392 14.62 7.5919C15.2854 7.87822 15.8807 8.30564 16.3647 8.8446C16.8761 8.20291 17.2602 7.46943 17.4963 6.68359C17.522 6.5875 17.5844 6.50532 17.67 6.4547C17.7557 6.40408 17.8577 6.38905 17.9543 6.41283C18.0509 6.43661 18.1343 6.49731 18.1867 6.5819C18.239 6.66649 18.2561 6.76823 18.2343 6.86528C17.9561 7.81107 17.4845 8.68873 16.8491 9.44255C16.9902 9.6368 17.1179 9.84037 17.2314 10.0519C17.5712 10.5224 17.8319 11.0453 18.0034 11.5998C18.2305 11.6149 20.3461 12.1031 20.3461 12.1031C20.5336 12.1466 20.729 12.1435 20.915 12.094C21.1011 12.0446 21.2722 11.9502 21.4133 11.8193C22.1558 11.1898 21.5187 9.97426 21.1938 9.39714L21.9205 8.99975C22.069 8.91833 22.197 8.804 22.2945 8.66552C22.3921 8.52703 22.4567 8.36807 22.4833 8.20078C22.51 8.0335 22.498 7.86233 22.4484 7.70038C22.3987 7.53843 22.3126 7.39 22.1968 7.26643Z" fill="black"/>
</svg>
