<svg width="24" height="24" viewBox="0 0 24 24" fill="none" xmlns="http://www.w3.org/2000/svg">
<path d="M17.4717 2.17592C21.0697 2.19344 23.9825 5.10617 24 8.70424L23.9912 9.01284C23.6281 15.4984 12 21.8244 12 21.8244L11.4844 21.5265C9.22829 20.1939 0.326241 14.5932 0.00878906 9.00893L0 8.70424C0 5.09895 2.92296 2.17592 6.52832 2.17592L6.94043 2.18569C8.98981 2.30037 10.8734 3.38492 12 5.12026C13.2099 3.27819 15.2678 2.17069 17.4717 2.17592ZM2 8.70424C2.00003 9.72392 2.48299 10.9404 3.48828 12.3117C4.4772 13.6605 5.83892 14.9777 7.27051 16.1554C8.69228 17.3251 10.1244 18.3103 11.2061 19.005C11.5029 19.1957 11.7723 19.3631 12.0059 19.506C12.2384 19.3653 12.5065 19.2005 12.8018 19.0128C13.8824 18.3261 15.3133 17.3512 16.7334 16.1886C18.1632 15.018 19.5233 13.7054 20.5107 12.3546C21.5093 10.9885 21.997 9.76125 22 8.71401L21.9932 8.48061C21.8609 6.08862 19.886 4.18856 17.4639 4.17592C15.9364 4.17333 14.5105 4.94125 13.6719 6.21791L11.9902 8.77846L10.3223 6.20913C9.49238 4.93091 8.06787 4.16415 6.54395 4.17592H6.52832C4.02755 4.17592 2 6.2035 2 8.70424Z" fill="black"/>
</svg>
