<svg width="24" height="24" viewBox="0 0 24 24" fill="none" xmlns="http://www.w3.org/2000/svg">
<path d="M22.5466 13.4059C22.5466 10.1266 20.5046 7.08137 17.2177 5.45954C15.8334 4.77563 14.8385 3.53476 14.4897 2.13671L14.4293 1.89709C14.367 1.64748 14.2575 1.42192 14.1296 1.21088L14.1306 1.40204C14.2706 3.70979 15.1413 5.95182 16.6471 7.75974L17.8 9.1426C19.9086 11.6735 20.3199 15.2131 18.8464 18.1601C17.8164 20.2214 16.0573 21.721 14.0214 22.2744C13.3582 22.455 12.6784 22.5463 12 22.5463C11.3216 22.5463 10.6419 22.455 9.97857 22.2744C7.94274 21.7209 6.18362 20.2214 5.15363 18.1601C3.68012 15.2131 4.0914 11.6735 6.20007 9.1426L7.35296 7.75904C8.85873 5.95182 9.72938 3.70979 9.87085 1.3629L9.87198 1.20667C9.74288 1.41868 9.63296 1.64593 9.5701 1.89709L9.51104 2.13671C9.16154 3.53467 8.16662 4.77563 6.78306 5.45954C3.49538 7.08132 1.45337 10.1266 1.45337 13.4059C1.45337 17.5189 4.6052 21.0041 8.92515 22.1477C8.66893 22.3326 8.4226 22.5798 8.20229 22.8102C7.93379 23.0911 7.9441 23.5367 8.22428 23.8045C8.50717 24.0744 8.95074 24.0627 9.21854 23.7825C9.42118 23.5704 9.65199 23.3956 9.89617 23.2432C9.89574 23.2613 9.89078 23.2782 9.89078 23.2964C9.89078 23.685 10.2053 23.9995 10.5939 23.9995C10.9825 23.9995 11.297 23.685 11.297 23.2964C11.297 23.0242 11.4567 22.7478 11.6832 22.6309C11.8952 22.6148 12.1051 22.6148 12.3171 22.6309C12.5436 22.7478 12.7033 23.0242 12.7033 23.2964C12.7033 23.685 13.0178 23.9995 13.4064 23.9995C13.795 23.9995 14.1095 23.685 14.1095 23.2964C14.1095 23.2782 14.1046 23.2613 14.1041 23.2432C14.3483 23.3957 14.5791 23.5704 14.7818 23.7825C14.9198 23.9267 15.1045 23.9995 15.2899 23.9995C15.4643 23.9995 15.6394 23.9349 15.776 23.8045C16.0562 23.5367 16.0665 23.0911 15.798 22.8102C15.5777 22.5798 15.3314 22.3326 15.0751 22.1477C19.3948 21.0041 22.5466 17.519 22.5466 13.4059Z" fill="black"/>
<path d="M13.4872 9.20995C12.9667 7.39383 12.703 5.51588 12.703 3.62695V0.708047C12.703 0.353484 12.4391 0.0538594 12.0872 0.0102656C12.0336 0.00365625 12 0 12 0C11.9998 0 11.9659 0.00370313 11.9119 0.0104063C11.5598 0.0540469 11.2969 0.352453 11.2969 0.707297V3.627C11.2969 5.51592 11.0332 7.39383 10.5127 9.21C9.46625 12.8629 9.56647 16.6929 10.8011 20.2847C10.9776 20.7962 11.4589 21.1403 12 21.1403C12.5411 21.1403 13.0224 20.7962 13.1989 20.2847C14.4334 16.6929 14.5337 12.8629 13.4872 9.20995Z" fill="black"/>
<path d="M16.7192 10.0436L15.5663 8.66007C15.1385 8.14575 14.7554 7.60402 14.4203 7.03894C14.5308 7.63908 14.6702 8.23439 14.8385 8.82282C15.9481 12.6961 15.8609 16.7534 14.5865 20.5697C15.8376 19.9716 16.9025 18.9039 17.5884 17.5313C18.8121 15.0842 18.4708 12.1447 16.7192 10.0436Z" fill="black"/>
<path d="M9.16145 8.82262C9.32969 8.23419 9.46909 7.63823 9.57963 7.03809C9.24456 7.60387 8.86141 8.14565 8.43363 8.65921L7.28074 10.0434C5.5292 12.1446 5.18795 15.084 6.41149 17.5312C7.09745 18.9037 8.16241 19.9715 9.41345 20.5695C8.13977 16.7532 8.05188 12.6959 9.16145 8.82262Z" fill="black"/>
</svg>
