<svg width="24" height="24" viewBox="0 0 24 24" fill="none" xmlns="http://www.w3.org/2000/svg">
<path d="M21.2993 8.19356C21.2386 8.20844 19.7849 8.5622 17.9062 9.17948C16.6663 9.587 15.5579 10.0036 14.5807 10.4294C17.1331 8.3894 20.2006 6.69044 20.2404 6.66836L19.6241 5.54972C19.5691 5.57996 18.2597 6.30356 16.6095 7.39292C15.4661 8.14796 14.4656 8.87428 13.608 9.57188C14.176 8.62612 14.7535 7.53276 15.3403 6.2918C16.1856 4.50404 16.7165 3.10532 16.7388 3.04676L15.5441 2.5946C15.5232 2.65028 13.4163 8.17916 11.0367 11.044L10.3241 11.7566L12.048 13.4817L12.6106 12.9194L12.6867 12.8431C15.8307 10.8465 21.5427 9.44876 21.5995 9.43508L21.2993 8.19356Z" fill="black"/>
<path d="M9.16082 16.3694L11.7091 13.8211L9.98402 12.0959L7.4357 14.644C6.48818 14.428 5.36738 14.7559 4.53338 15.5896C3.4025 16.7207 3.20234 18.3791 4.02794 19.4183C4.08038 19.4846 4.13647 19.5479 4.19594 19.6079C4.25595 19.6675 4.31934 19.7236 4.38578 19.7759C5.42498 20.602 7.08338 20.4014 8.21426 19.2705C9.04802 18.4367 9.3761 17.3159 9.15962 16.3682L9.16082 16.3694Z" fill="black"/>
<path d="M4.08841 20.153C3.92697 20.0248 3.78067 19.8786 3.65233 19.7172C3.64153 19.7035 3.63097 19.6896 3.62041 19.6757L2.85409 20.4422C2.82062 20.4756 2.79406 20.5153 2.77593 20.559C2.7578 20.6027 2.74845 20.6495 2.74841 20.6968C2.74835 20.7924 2.78623 20.884 2.85373 20.9516C2.92124 21.0192 3.01283 21.0572 3.10836 21.0573C3.15566 21.0573 3.20251 21.048 3.24622 21.03C3.28994 21.0119 3.32966 20.9854 3.36313 20.952L4.12969 20.184C4.11601 20.1739 4.10185 20.1638 4.08841 20.153Z" fill="black"/>
<path d="M3.65236 19.7171C3.49337 19.5167 3.36322 19.2949 3.26572 19.0583H2.40004C2.30456 19.0583 2.21299 19.0963 2.14548 19.1638C2.07797 19.2313 2.04004 19.3229 2.04004 19.4183C2.04004 19.5138 2.07797 19.6054 2.14548 19.6729C2.21299 19.7404 2.30456 19.7783 2.40004 19.7783H3.70252C3.68548 19.7582 3.66892 19.7378 3.65236 19.7171Z" fill="black"/>
<path d="M4.08842 20.1531C4.06754 20.1365 4.04714 20.1197 4.02698 20.1027V21.4054C4.02698 21.5009 4.06491 21.5924 4.13242 21.6599C4.19993 21.7275 4.2915 21.7654 4.38698 21.7654C4.48246 21.7654 4.57402 21.7275 4.64154 21.6599C4.70905 21.5924 4.74698 21.5009 4.74698 21.4054V20.5395C4.51047 20.4421 4.28879 20.312 4.08842 20.1531Z" fill="black"/>
</svg>
