<svg width="24" height="24" viewBox="0 0 24 24" fill="none" xmlns="http://www.w3.org/2000/svg">
<g clip-path="url(#clip0_671_4307)">
<path d="M4.91157 1.0005C5.05993 0.686016 5.47585 0.409594 5.80173 0.409594C5.95262 0.409594 6.02743 0.470484 6.07562 0.523734C6.58665 1.07916 8.30354 5.11781 8.45063 5.56795C8.41257 5.76323 7.99543 6.14742 7.77479 6.14742L7.54656 5.70234C6.88463 4.46222 5.77768 2.38772 4.9382 1.3657C4.87351 1.28578 4.82406 1.18561 4.91157 1.0005ZM3.48376 6.87525C3.44317 5.97877 2.56192 4.63083 1.85181 3.68362C2.41862 3.74705 4.77587 4.10081 5.21715 4.15786C5.65717 4.92122 6.08195 5.71753 6.40023 6.3135L6.6234 6.73064C6.86813 7.18589 7.28785 7.44586 7.77479 7.44586C8.45448 7.44586 9.06821 6.95259 9.38645 6.53034C9.70093 6.11189 9.81507 5.67441 9.70726 5.29781C9.65401 5.11139 9.26598 4.12739 8.78664 3.02297C9.99634 2.13661 11.6727 0.906656 12.8951 0C12.9407 1.29844 12.2903 3.13331 11.977 4.01709C11.8464 4.38736 11.7564 4.65872 11.7361 4.77666C11.6854 5.07464 11.8464 5.36752 12.1241 5.4855C12.5477 5.66423 13.1056 5.9978 13.7523 6.38578C14.5448 6.86002 15.478 7.41797 16.4608 7.85794C15.8001 8.20664 14.9949 8.3715 13.997 8.3715C13.4809 8.3715 11.8883 8.23711 11.6296 8.23711C11.2884 8.23711 10.8599 8.27517 10.5657 8.56809C10.2778 8.85595 10.2069 9.32887 10.0902 10.1125C9.92406 11.2233 9.68439 12.8236 8.7917 13.6795C8.50384 13.1913 8.22235 12.6651 7.94593 12.1515C7.08114 10.5373 6.63859 9.75492 6.04515 9.5888C5.94371 9.55964 5.83721 9.54572 5.72054 9.54572C5.35154 9.54572 4.9217 9.69028 4.37893 9.87412C3.62317 10.1303 2.6836 10.4473 1.68057 10.4473C1.26212 10.4473 0.86776 10.3928 0.492432 10.2812C1.80742 9.34791 3.52435 7.73752 3.48376 6.87525ZM21.4111 18.9951C19.8249 21.4868 16.1146 24 11.4026 24C10.0534 24 8.67887 23.7959 7.31954 23.3914C4.17231 22.4581 1.70092 18.7365 1.38517 17.4202C0.7854 14.9273 0.889369 13.0963 1.28246 11.7191C1.41432 11.728 1.5437 11.7458 1.67935 11.7458C2.89665 11.7458 3.99348 11.3755 4.7949 11.1041C5.15626 10.9823 5.56459 10.8442 5.60771 10.801C5.84106 10.9735 6.39643 12.0082 6.80218 12.7652C7.1851 13.4779 7.61753 14.2868 8.05754 14.9615C8.18054 15.1517 8.38853 15.2569 8.60153 15.2569C8.70296 15.2569 8.80567 15.2328 8.90078 15.1834C10.7914 14.2019 11.1566 11.7622 11.3747 10.3053C11.414 10.0403 11.4609 9.72581 11.5053 9.53939C11.6853 9.5242 13.4403 9.66998 13.997 9.66998C15.8217 9.66998 17.2127 9.16912 18.2461 8.13572C18.4059 7.97592 18.4718 7.74389 18.4186 7.52452C18.3653 7.30387 18.2005 7.12762 17.9849 7.05787C16.7397 6.65972 15.5072 5.92177 14.4192 5.27123C13.9614 4.99608 13.5443 4.74755 13.1664 4.5472C13.1778 4.51678 13.1892 4.48378 13.2006 4.45083C13.3186 4.11736 13.4605 3.71409 13.5975 3.27792C13.7269 3.27286 13.8524 3.26142 13.9842 3.26142C16.8449 3.26142 19.1705 4.16048 20.895 5.93316C24.8298 9.97688 23.7418 15.3318 21.4111 18.9951Z" fill="black"/>
</g>
<defs>
<clipPath id="clip0_671_4307">
<rect width="24" height="24" fill="white"/>
</clipPath>
</defs>
</svg>
